<svg xmlns="http://www.w3.org/2000/svg" xmlns:xlink="http://www.w3.org/1999/xlink" version="1.1" style="" xml:space="preserve" width="76" height="76"><rect id="backgroundrect" width="100%" height="100%" x="0" y="0" fill="none" stroke="none"/>
















<g class="currentLayer" style=""><title>Layer 1</title><g id="_x37_7_Essential_Icons_69_" class="" fill="#ffffff" fill-opacity="1" transform="rotate(-90 38.00000000000001,38.33898162841797) ">
	<path id="Up_Arrow" d="M55.9,45.73898305892944 c-0.8,0.8 -2,0.8 -2.8,0 L38.4,31.038983058929446 L22.9,46.538983058929446 c-0.8,0.8 -2,0.8 -2.8,0 s-0.8,-2 0,-2.8 L37,26.838983058929443 c0.8,-0.8 2.1,-0.8 2.8,0 l16.1,16.1 C56.7,43.73898305892944 56.7,44.938983058929445 55.9,45.73898305892944 zM76,38.33898305892944 c0,21 -17,38 -38,38 S0,59.33898305892944 0,38.33898305892944 S17,0.33898305892944736 38,0.33898305892944736 S76,17.338983058929443 76,38.33898305892944 zM72,38.33898305892944 C72,19.538983058929443 56.7,4.338983058929445 38,4.338983058929445 C19.2,4.338983058929445 4,19.538983058929443 4,38.33898305892944 s15.2,34 34,34 C56.7,72.33898305892944 72,57.13898305892944 72,38.33898305892944 z" fill="#ffffff" fill-opacity="1"/>
</g><g id="svg_1">
</g><g id="svg_2">
</g><g id="svg_3">
</g><g id="svg_4">
</g><g id="svg_5">
</g><g id="svg_6">
</g><g id="svg_7">
</g><g id="svg_8">
</g><g id="svg_9">
</g><g id="svg_10">
</g><g id="svg_11">
</g><g id="svg_12">
</g><g id="svg_13">
</g><g id="svg_14">
</g><g id="svg_15">
</g></g></svg>