<?xml version="1.0" encoding="UTF-8"?>
<!DOCTYPE svg PUBLIC "-//W3C//DTD SVG 1.1//EN" "http://www.w3.org/Graphics/SVG/1.1/DTD/svg11.dtd">
<!-- Creator: CorelDRAW 2018 (64-Bit) -->
<svg xmlns="http://www.w3.org/2000/svg" xml:space="preserve" width="183mm" height="163mm" version="1.1" style="shape-rendering:geometricPrecision; text-rendering:geometricPrecision; image-rendering:optimizeQuality; fill-rule:evenodd; clip-rule:evenodd"
viewBox="0 0 183 163"
 xmlns:xlink="http://www.w3.org/1999/xlink">
 <defs>
  <style type="text/css">
   <![CDATA[
    .fil0 {fill:white}
   ]]>
  </style>
 </defs>
 <g id="Слой_x0020_1">
  <metadata id="CorelCorpID_0Corel-Layer"/>
  <path class="fil0" d="M175.0882 66.8731l-3.2183 0c-2.9212,-16.2484 -10.6947,-31.2067 -22.6162,-43.1268 -15.4259,-15.4273 -35.9379,-23.9228 -57.7537,-23.9228 -21.8158,0 -42.3277,8.4955 -57.7537,23.9228 -12.0068,12.0068 -19.8092,27.0944 -22.6809,43.4803l-3.1536 0c-3.6103,0 -6.5467,2.9364 -6.5467,6.5467l0 23.7908c0,3.6089 2.9364,6.5467 6.5467,6.5467l5.1066 -0.0001c4.3612,15.1453 13.0576,28.8645 25.2844,39.368 1.1072,0.9504 2.7755,0.8252 3.7272,-0.2819 0.9517,-1.1085 0.8252,-2.7768 -0.2819,-3.7286 -3.1633,-2.7163 -6.0722,-5.6651 -8.7142,-8.8064 4.0408,-1.7027 8.1696,-3.1069 12.3286,-4.2581 1.975,3.4851 4.1907,6.8479 6.6484,10.0593 5.3845,7.0377 11.4649,13.2295 17.9456,18.3334 -5.3845,-1.5775 -10.5916,-3.7451 -15.5029,-6.4751 -1.2763,-0.7083 -2.8855,-0.2489 -3.5938,1.0274 -0.7097,1.2763 -0.2503,2.8855 1.026,3.5952 12.0494,6.6938 25.7479,10.2326 39.6142,10.2326 21.8158,0 42.3264,-8.4955 57.7537,-23.9228 9.9094,-9.908 16.9498,-21.9189 20.7238,-35.0219l5.1107 -0.0001c3.6103,0 6.5467,-2.9364 6.5467,-6.5467l0 -24.2653c0,-3.6089 -2.9364,-6.5467 -6.5467,-6.5467l0 0.0001zm-8.6001 0l-18.3884 0c-0.2201,-1.3698 -0.4635,-2.7397 -0.7468,-4.1082 -1.5706,-7.5823 -4.0256,-14.8221 -7.3251,-21.6562 0.4869,-0.1334 0.9765,-0.2641 1.4606,-0.4016 3.3655,-0.9627 7.6497,-2.2721 11.8583,-4.0724 6.5728,9.0237 11.0331,19.3085 13.1415,30.2384l-0.0001 0zm-23.6876 0.3535l-27.3144 0c-0.0908,-1.3258 -0.1898,-2.6517 -0.3067,-3.9748 -0.524,-5.914 -1.297,-11.6396 -2.2927,-17.1148 7.5768,-0.7867 14.895,-2.0176 21.9162,-3.6873 3.349,6.7241 5.8177,13.8786 7.3732,21.3881 0.2338,1.1278 0.436,2.2583 0.6244,3.3889l0 -0.0001zm2.7149 -39.7435c1.5569,1.5569 3.0354,3.1716 4.4396,4.8344 -3.5209,1.4139 -7.0638,2.4894 -9.9204,3.3063 -0.828,0.2366 -1.6614,0.4635 -2.4976,0.6863 -1.671,-2.9955 -3.5071,-5.9071 -5.5179,-8.7238 -5.269,-7.3774 -11.5172,-13.836 -18.6511,-19.314 12.0192,3.5732 23.033,10.0964 32.1474,19.2109l0 -0.0001zm-45.8637 -21.9409c11.2256,6.3101 20.6687,14.7575 28.0654,25.1166 1.6119,2.2597 3.1042,4.5854 4.485,6.9675 -6.5288,1.4895 -13.3216,2.5939 -20.3483,3.305 -3.0602,-14.2472 -7.6951,-26.5195 -13.5004,-35.5143 0.4332,0.0371 0.8665,0.0784 1.2983,0.1252zm-8.1517 -0.4319c0.0646,0 0.1279,0.0014 0.1925,0.0014 6.4229,8.4763 11.5584,21.1377 14.8661,36.279 -5.6472,0.4071 -11.4319,0.5735 -17.3445,0.4869 -4.0133,-0.0578 -8.3085,-0.1829 -12.7797,-0.4552 3.3077,-15.155 8.446,-27.8288 14.873,-36.3106 0.0646,0 0.1279,-0.0014 0.1925,-0.0014l0.0001 -0.0001zm-6.8534 0.3067c-5.8205,9.0154 -10.4623,21.3248 -13.5224,35.6133 -6.6361,-0.5776 -13.5651,-1.5335 -20.4968,-3.1124 1.4276,-2.4853 2.9763,-4.9086 4.6556,-7.2605 7.3966,-10.3578 16.8398,-18.8051 28.0654,-25.1166 0.4319,-0.0454 0.8651,-0.0866 1.2983,-0.1238l-0.0001 0zm-14.5539 40.8314c-0.9861,5.4409 -1.7522,11.1293 -2.2721,17.0034 -0.1169,1.3231 -0.2159,2.6489 -0.3053,3.9748l-27.3186 0c0.187,-1.1305 0.3934,-2.2611 0.6272,-3.3889 1.5321,-7.3994 3.9555,-14.4522 7.2288,-21.091 7.4626,1.7907 14.9184,2.8594 22.04,3.5016l0 0.0001zm-32.6082 -18.7653c9.1144,-9.1144 20.1282,-15.6377 32.1474,-19.2109 -7.1353,5.478 -13.3835,11.9367 -18.6511,19.314 -2.0713,2.9006 -3.9569,5.9044 -5.6664,8.9962 -4.1439,-1.1484 -8.259,-2.5499 -12.2846,-4.2471 1.4084,-1.6683 2.8924,-3.2885 4.4548,-4.8522l-0.0001 0zm-7.834 9.1571c4.3268,1.8994 8.7472,3.4563 13.1937,4.734 -3.2348,6.7571 -5.6472,13.9062 -7.1972,21.3908 -0.3067,1.4854 -0.5721,2.9735 -0.8046,4.4616l-18.3993 0c2.0795,-11.0606 6.5659,-21.4678 13.2075,-30.5864l-0.0001 0zm-21.7387 62.1836c-0.6946,0 -1.2598,-0.5653 -1.2598,-1.2612l0 -23.7908c0,-0.6946 0.5653,-1.2598 1.2598,-1.2598l76.3043 0c1.4606,0 2.6434,-1.1828 2.6434,-2.6434 0,-1.4592 -1.1828,-2.6434 -2.6434,-2.6434l-11.4044 0c0.0825,-1.169 0.1719,-2.3395 0.2751,-3.5071 0.524,-5.9154 1.2997,-11.6245 2.301,-17.064 4.822,0.3095 9.4431,0.447 13.7507,0.5089 1.0425,0.0151 2.0823,0.0234 3.1193,0.0234 5.2153,0 10.333,-0.1953 15.3475,-0.5749 1.004,5.4519 1.7825,11.1761 2.3078,17.1066 0.1032,1.1677 0.1939,2.3381 0.2764,3.5071l-9.4692 0c-1.4592,0 -2.6434,1.1842 -2.6434,2.6434 0,1.4606 1.1842,2.6434 2.6434,2.6434l41.0019 0 0 26.3104 -133.8104 0.0001 0 0.0013zm133.1764 5.2855c-1.5225,5.6829 -3.6295,11.1926 -6.3018,16.4354 -7.0088,-1.6655 -14.3105,-2.8992 -21.8736,-3.6859 0.7592,-4.1329 1.3822,-8.3938 1.8636,-12.7481l26.3118 0 0 -0.0014zm-31.6248 0c-0.4772,4.1989 -1.0907,8.303 -1.8347,12.2805 -6.0185,-0.4566 -12.1856,-0.6464 -18.4902,-0.5543 -4.3158,0.0619 -8.9453,0.1994 -13.7755,0.5103 -0.7399,-3.9638 -1.3506,-8.0527 -1.8265,-12.2365l35.9269 0zm-79.7964 22.2435c-4.91,-6.7667 -8.6674,-14.2816 -11.1335,-22.2435l17.9236 0c1.5184,6.046 3.6502,11.9174 6.3857,17.5164 -4.441,1.2763 -8.8559,2.8305 -13.1758,4.7271zm12.2503 -22.2435l26.3022 0c0.4772,4.3186 1.0962,8.545 1.8471,12.645 -7.1106,0.6409 -14.5539,1.7096 -22.0028,3.4948 -2.6008,-5.1534 -4.6528,-10.5641 -6.1464,-16.1397l-0.0001 -0.0001zm41.4049 53.3319c-9.8901,-5.5715 -19.2604,-13.9282 -27.1123,-24.191 -2.0108,-2.6255 -3.8441,-5.3625 -5.511,-8.1861 6.9029,-1.5679 13.8016,-2.5183 20.4102,-3.0945 1.0453,4.8013 2.2845,9.3978 3.7121,13.7177 2.107,6.3665 5.4147,14.8593 9.8626,21.8914 -0.4539,-0.0399 -0.9077,-0.088 -1.3616,-0.1375zm8.1778 0.4484c-0.0646,0 -0.1279,-0.0028 -0.1925,-0.0028 -4.1618,-5.5138 -8.1201,-13.7439 -11.4663,-23.8596 -1.2997,-3.9294 -2.4344,-8.0994 -3.4054,-12.451 4.4713,-0.2709 8.7651,-0.3975 12.7784,-0.4552 5.9126,-0.0839 11.696,0.0825 17.3432,0.4896 -0.9696,4.3392 -2.1029,8.4983 -3.3985,12.4167 -3.3448,10.1157 -7.3045,18.3458 -11.4663,23.8596 -0.0646,0.0014 -0.1279,0.0028 -0.1925,0.0028l-0.0001 -0.0001zm6.8107 -0.3026c4.4506,-7.0335 7.7611,-15.5304 9.8668,-21.8997 1.4194,-4.2897 2.6503,-8.8504 3.6901,-13.616 6.9964,0.7083 13.759,1.8045 20.2603,3.2843 -1.6202,2.7204 -3.3971,5.3597 -5.3377,7.8945 -7.8601,10.2725 -17.24,18.636 -27.1398,24.2075 -0.4456,0.0468 -0.8926,0.0894 -1.3396,0.1293l-0.0001 0.0001zm47.2047 -22.0716c-9.2093,9.2093 -20.3579,15.7725 -32.5215,19.3195 6.4985,-5.1108 12.5968,-11.3164 17.9951,-18.3719 2.3945,-3.1275 4.5565,-6.4009 6.4916,-9.7897 0.8555,0.2283 1.7082,0.4607 2.554,0.7014 2.8538,0.817 6.394,1.8925 9.9135,3.305 -1.4042,1.6628 -2.8759,3.2802 -4.4328,4.8357l0.0001 0zm7.823 -9.1543c-4.2058,-1.7976 -8.4873,-3.1069 -11.85,-4.0683 -0.4841,-0.1389 -0.9737,-0.2682 -1.4606,-0.4016 2.7796,-5.6403 4.943,-11.5626 6.4834,-17.6595l17.9401 0c-2.4536,7.9124 -6.1918,15.3737 -11.1128,22.1294l-0.0001 0zm23.0096 -28.7971c0,0.6946 -0.5653,1.2598 -1.2598,1.2598l-28.0805 0 0 -26.3118 28.0805 0c0.6946,0 1.2598,0.5666 1.2598,1.2612l0 23.7908zm0 0z"/>
  <path class="fil0" d="M21.3696 90.7808c0,0.3906 -0.5873,0.8005 -1.2708,0.8005 -0.7413,0 -1.2502,-0.4099 -1.2502,-0.8005l0 -13.1057c0,-0.469 0.5089,-0.7826 1.2502,-0.7826 0.6835,0 1.2708,0.3136 1.2708,0.7826l0 5.9951c0.3507,-0.7606 1.2296,-1.484 2.4605,-1.484 1.7962,0 3.3586,1.7976 3.3586,3.9651l0 4.628c0,0.5281 -0.6437,0.8018 -1.2694,0.8018 -0.5859,0 -1.2502,-0.2737 -1.2502,-0.8018l0 -4.628c0,-0.8788 -0.7812,-1.7577 -1.6986,-1.7577 -0.8005,0 -1.6023,0.6629 -1.6023,1.7577l0 4.6294 0.0014 0.0001zm0 0z"/>
  <path class="fil0" d="M32.7368 88.4166c0,0.7619 0.2737,1.0356 1.0948,1.0356l0.7619 0c0.7221,0 1.0741,0.5281 1.0741,1.0549 0,0.5474 -0.3521,1.0741 -1.0741,1.0741l-0.7619 0c-2.3436,0 -3.613,-0.9572 -3.613,-3.1647l0 -9.472c0,-0.469 0.6629,-0.7812 1.2502,-0.7812 0.6437,0 1.2694,0.3122 1.2694,0.7812l0 3.3586 2.3051 0c0.4099,0 0.6437,0.469 0.6437,0.9187 0,0.4676 -0.2338,0.9174 -0.6437,0.9174l-2.3051 0 0 4.2773 -0.0014 0.0001zm0 0z"/>
  <path class="fil0" d="M40.6877 88.4166c0,0.7619 0.2723,1.0356 1.0934,1.0356l0.762 0c0.7221,0 1.0741,0.5281 1.0741,1.0549 0,0.5474 -0.3521,1.0741 -1.0741,1.0741l-0.762 0c-2.3436,0 -3.613,-0.9572 -3.613,-3.1647l0 -9.472c0,-0.469 0.6643,-0.7812 1.2502,-0.7812 0.645,0 1.2694,0.3122 1.2694,0.7812l0 3.3586 2.3051 0c0.4099,0 0.6437,0.469 0.6437,0.9187 0,0.4676 -0.2338,0.9174 -0.6437,0.9174l-2.3051 0 0 4.2774zm0 0z"/>
  <path class="fil0" d="M48.5203 83.0843l0 0.5859c0.4484,-0.7606 1.3864,-1.484 2.6365,-1.484 1.953,0 3.4961,1.7976 3.4961,3.9651l0 1.6009c0,2.0905 -1.6009,4.005 -3.4177,4.005 -1.1718,0 -2.1882,-0.7427 -2.5581,-1.5431l0 4.8825c0,0.4099 -0.5859,0.8005 -1.2901,0.8005 -0.7221,0 -1.2296,-0.3906 -1.2296,-0.8005l0 -12.0123c0,-0.469 0.5268,-0.7812 1.1911,-0.7812 0.6835,0 1.1718,0.3122 1.1718,0.7812zm3.6131 3.0671c0,-0.8788 -0.8005,-1.7577 -1.777,-1.7577 -0.8197,0 -1.6793,0.6629 -1.6793,1.7577l0 1.953c0,0.4099 0.7221,1.4455 1.7178,1.4455 0.9187,0 1.7384,-0.8981 1.7384,-1.7976l0.0001 -1.6009zm0 0z"/>
  <path class="fil0" d="M61.8227 89.0025c0,-1.7178 -4.6294,-0.6437 -4.6294,-3.906 0,-1.3864 0.8788,-2.9102 3.4961,-2.9102 1.583,0 3.1055,0.5474 3.1055,1.2694 0,0.3521 -0.3315,1.2117 -0.9174,1.2117 -0.469,0 -1.0741,-0.5666 -2.1483,-0.5666 -0.9765,0 -1.3671,0.4882 -1.3671,0.8788 0,1.4262 4.6872,0.4497 4.6872,3.9252 0,1.7398 -1.2887,2.8525 -3.5938,2.8525 -1.9915,0 -3.5346,-0.8211 -3.5346,-1.6807 0,-0.4099 0.3507,-1.1127 0.839,-1.1127 0.5666,0 0.9971,0.8788 2.6379,0.8788 1.1512,0 1.4249,-0.4497 1.4249,-0.8403l0 0.0001zm0 0z"/>
  <path class="fil0" d="M69.2262 84.6674c0,0.7028 -0.6052,1.3272 -1.308,1.3272 -0.7619,0 -1.3286,-0.6244 -1.3286,-1.3272 0,-0.7234 0.5666,-1.3286 1.3286,-1.3286 0.7028,0 1.308,0.6052 1.308,1.3286zm0 5.7022c0,0.7042 -0.6052,1.3286 -1.308,1.3286 -0.7619,0 -1.3286,-0.6244 -1.3286,-1.3286 0,-0.7221 0.5666,-1.3272 1.3286,-1.3272 0.7028,0 1.308,0.6052 1.308,1.3272zm0 0z"/>
  <path class="fil0" d="M80.3789 77.4014c0,0.1169 -0.0193,0.2338 -0.0784,0.3507l-7.0115 14.1812c-0.1375,0.2723 -0.4497,0.4291 -0.7619,0.4291 -0.5666,0 -0.938,-0.4484 -0.938,-0.8596 0,-0.1169 0.0399,-0.2338 0.0976,-0.3315l7.0115 -14.239c0.1375,-0.2737 0.4112,-0.4099 0.7042,-0.4099 0.469,0 0.9765,0.3507 0.9765,0.8788l0 0.0002zm0 0z"/>
  <path class="fil0" d="M86.2792 77.4014c0,0.1169 -0.0206,0.2338 -0.0784,0.3507l-7.0129 14.1812c-0.1362,0.2723 -0.4484,0.4291 -0.7606,0.4291 -0.5666,0 -0.938,-0.4484 -0.938,-0.8596 0,-0.1169 0.0385,-0.2338 0.0976,-0.3315l7.0115 -14.239c0.1375,-0.2737 0.4099,-0.4099 0.7042,-0.4099 0.4676,0 0.9765,0.3507 0.9765,0.8788l0.0001 0.0002zm0 0z"/>
  <path class="fil0" d="M97.5694 91.3461c-0.1375,0.3328 -0.5666,0.4497 -0.9958,0.4497 -0.4882,0 -0.9187,-0.1568 -1.0356,-0.4497l-1.5046 -4.2581 -1.484 4.2388c-0.1169,0.3122 -0.5859,0.469 -1.0741,0.469 -0.4099,0 -0.8403,-0.1169 -0.9765,-0.469l-3.0079 -7.7143c-0.0784,-0.1568 -0.0976,-0.2737 -0.0976,-0.3713 0,-0.6052 0.9765,-1.0356 1.6408,-1.0356 0.3315,0 0.6244,0.1362 0.7221,0.4099l1.953 5.5468 1.4647 -4.8247c0.1375,-0.4484 0.469,-0.5075 0.8596,-0.5075 0.3713,0 0.7234,0.0591 0.8596,0.5075l1.4455 4.844 1.9723 -5.566c0.0976,-0.2544 0.3713,-0.4099 0.7234,-0.4099 0.6244,0 1.6215,0.4291 1.6215,1.0549 0,0.1169 -0.0193,0.2531 -0.0784,0.3521l-3.008 7.7334zm0 0z"/>
  <path class="fil0" d="M112.2774 91.3461c-0.1362,0.3328 -0.5653,0.4497 -0.9958,0.4497 -0.4882,0 -0.9174,-0.1568 -1.0356,-0.4497l-1.5033 -4.2581 -1.4854 4.2388c-0.1169,0.3122 -0.5845,0.469 -1.0741,0.469 -0.4099,0 -0.839,-0.1169 -0.9765,-0.469l-3.0079 -7.7143c-0.0784,-0.1568 -0.0976,-0.2737 -0.0976,-0.3713 0,-0.6052 0.9765,-1.0356 1.6408,-1.0356 0.3315,0 0.6244,0.1362 0.7234,0.4099l1.953 5.5468 1.4647 -4.8247c0.1362,-0.4484 0.469,-0.5075 0.8596,-0.5075 0.3713,0 0.7221,0.0591 0.8582,0.5075l1.4455 4.844 1.9736 -5.566c0.0976,-0.2544 0.3713,-0.4099 0.7221,-0.4099 0.6258,0 1.6215,0.4291 1.6215,1.0549 0,0.1169 -0.0193,0.2531 -0.0784,0.3521l-3.0078 7.7334zm0 0z"/>
  <path class="fil0" d="M126.9867 91.3461c-0.1362,0.3328 -0.5653,0.4497 -0.9958,0.4497 -0.4882,0 -0.9174,-0.1568 -1.0356,-0.4497l-1.5033 -4.2581 -1.4854 4.2388c-0.1169,0.3122 -0.5859,0.469 -1.0741,0.469 -0.4099,0 -0.839,-0.1169 -0.9765,-0.469l-3.0079 -7.7143c-0.0784,-0.1568 -0.0976,-0.2737 -0.0976,-0.3713 0,-0.6052 0.9765,-1.0356 1.6408,-1.0356 0.3315,0 0.6244,0.1362 0.7234,0.4099l1.953 5.5468 1.4647 -4.8247c0.1362,-0.4484 0.4676,-0.5075 0.8582,-0.5075 0.3713,0 0.7234,0.0591 0.8596,0.5075l1.4455 4.844 1.9736 -5.566c0.0963,-0.2544 0.3713,-0.4099 0.7221,-0.4099 0.6244,0 1.6215,0.4291 1.6215,1.0549 0,0.1169 -0.0193,0.2531 -0.0784,0.3521l-3.0078 7.7334zm0 0z"/>
  <path class="fil0" d="M169.3613 80.0297l-2.8511 -0.414 -1.2749 -2.5843c-0.6739,-1.3643 -2.0355,-2.2102 -3.5567,-2.2102 -1.5211,0 -2.8841,0.8472 -3.5567,2.2102l-1.2749 2.5843 -2.8511 0.414c-1.506,0.2187 -2.7314,1.2529 -3.2018,2.6984 -0.4704,1.4469 -0.0853,3.0051 1.004,4.0669l2.063 2.0108 -0.4869 2.8401c-0.2586,1.4978 0.3466,2.9845 1.5775,3.8785 1.2296,0.894 2.8291,1.0109 4.1769,0.3026l2.5499 -1.341 2.5499 1.341c0.5859,0.3067 1.2186,0.4594 1.8498,0.4594 0.8183,0 1.6325,-0.2572 2.3271,-0.7619 1.2296,-0.894 1.8347,-2.3807 1.5775,-3.8785l-0.4869 -2.8401 2.063 -2.0108c1.0893,-1.0618 1.473,-2.62 1.004,-4.0669 -0.4704,-1.4455 -1.6972,-2.4798 -3.2018,-2.6984l0.0002 -0.0001zm-4.0532 5.4753c-0.9339,0.9119 -1.3602,2.2239 -1.1402,3.5099l0.1527 0.8871 -0.7963 -0.4181c-1.1553,-0.6079 -2.5348,-0.6079 -3.6914,0l-0.7963 0.4181 0.1513 -0.8871c0.2214,-1.286 -0.2049,-2.598 -1.1402,-3.5099l-0.6437 -0.6285 0.8899 -0.1293c1.2915,-0.187 2.4082,-0.9985 2.9873,-2.1689l0.3975 -0.8073 0.3989 0.8073c0.5776,1.1704 1.6944,1.9819 2.9859,2.1689l0.8899 0.1293 -0.6453 0.6285zm0 0z"/>
 </g>
</svg>
