<?xml version="1.0" encoding="UTF-8"?>
<!DOCTYPE svg PUBLIC "-//W3C//DTD SVG 1.1//EN" "http://www.w3.org/Graphics/SVG/1.1/DTD/svg11.dtd">
<!-- Creator: CorelDRAW 2018 (64-Bit) -->
<svg xmlns="http://www.w3.org/2000/svg" xml:space="preserve" width="27.9398mm" height="11.8532mm" version="1.1" style="shape-rendering:geometricPrecision; text-rendering:geometricPrecision; image-rendering:optimizeQuality; fill-rule:evenodd; clip-rule:evenodd"
viewBox="0 0 27.9398 11.8532"
 xmlns:xlink="http://www.w3.org/1999/xlink">
 <defs>
  <style type="text/css">
   <![CDATA[
    .fil0 {fill:white}
    .fil1 {fill:white;fill-rule:nonzero}
   ]]>
  </style>
 </defs>
 <g id="Слой_x0020_1">
  <metadata id="CorelCorpID_0Corel-Layer"/>
  <g id="bet2u_x0020_белый.eps">
   <path class="fil0" d="M5.5435 3.1093l-3.6714 0 -1.1633 4.6532 3.6717 0c0.8044,0 1.2818,-0.3079 1.4323,-0.9235l0.2034 -0.8359c0.0146,-0.068 0.022,-0.1285 0.022,-0.1819 0,-0.1549 -0.0777,-0.2666 -0.2328,-0.3345 -0.1068,-0.0435 -0.3177,-0.0872 -0.6327,-0.1306l0 -0.0148c0.349,-0.0241 0.601,-0.0749 0.7561,-0.1526 0.2182,-0.1066 0.3611,-0.2908 0.4291,-0.5525l0.1523 -0.6033c0.0294,-0.1117 0.0439,-0.2109 0.0439,-0.2983 0,-0.4167 -0.3368,-0.6253 -1.0106,-0.6253zm-0.8142 0.909c0,0.0289 -0.0049,0.0654 -0.0146,0.1089l-0.1454 0.5818c-0.0437,0.1743 -0.1502,0.2617 -0.3197,0.2617l-1.0692 0 0.2694 -1.0904 1.0687 0c0.1405,0 0.2108,0.0457 0.2108,0.138zm-0.4656 1.8611c0,0.0292 -0.0049,0.0677 -0.0141,0.1166l-0.1893 0.7415c-0.0435,0.1692 -0.1503,0.2543 -0.32,0.2543l-1.0684 0 0.3123 -1.2506 1.0689 0c0.1403,0 0.2106,0.0462 0.2106,0.1382z"/>
   <path class="fil0" d="M6.7358 5.3198l-0.3562 1.4249c-0.0435,0.1743 -0.0654,0.3222 -0.0654,0.4434 0,0.383 0.2547,0.5744 0.7635,0.5744l3.5623 0 0.1674 -0.6687 -2.443 0c-0.1891,0 -0.2837,-0.0777 -0.2837,-0.2328 0,-0.0343 0.0049,-0.0726 0.0146,-0.1163l0.08 -0.3202 2.8721 0 0.2762 -1.1047c0.0386,-0.1503 0.058,-0.2814 0.058,-0.3925 0,-0.3879 -0.2568,-0.5819 -0.7707,-0.5819l-2.6827 0c-0.344,0 -0.6131,0.0825 -0.807,0.2471 -0.1743,0.1551 -0.3028,0.3976 -0.3854,0.7273zm2.8064 0.4359l-1.1998 0 0.1165 -0.4725c0.0437,-0.1791 0.1529,-0.269 0.3271,-0.269l0.6765 0c0.1403,0 0.2105,0.0511 0.2105,0.1528 0,0.0291 -0.0048,0.0679 -0.0145,0.1162l-0.1163 0.4725z"/>
   <path class="fil0" d="M12.0358 6.7884c-0.024,0.1017 -0.0363,0.2009 -0.0363,0.298 0,0.2082 0.0644,0.3731 0.1927,0.4942 0.1285,0.1214 0.3069,0.1819 0.5343,0.1819l2.3268 0 0.1671 -0.6687 -1.2652 0c-0.15,0 -0.2252,-0.0514 -0.2252,-0.1528 0,-0.0292 0.0046,-0.0629 0.0146,-0.102l0.4508 -1.8248 1.3669 0 0.1671 -0.6688 -1.3669 0 0.1889 -0.7416 -1.7158 0 -0.1891 0.7416 -0.7196 0 -0.1671 0.6688 0.7199 0 -0.4439 1.7742z"/>
   <path class="fil0" d="M16.1437 5.654l-0.5237 2.1085 4.7841 0 0.1891 -0.7707 -3.0098 0 0.1523 -0.589c0.0488,-0.1891 0.1431,-0.2857 0.2836,-0.2906l1.912 -0.0945c0.3297,-0.0146 0.5806,-0.0897 0.7526,-0.2254 0.1722,-0.1357 0.2969,-0.3539 0.3746,-0.6545l0.2545 -1.0106c0.0335,-0.1406 0.0506,-0.2666 0.0506,-0.378 0,-0.4265 -0.3391,-0.6399 -1.0178,-0.6399l-3.4897 0 -0.1962 0.771 2.6829 0c0.2083,0 0.2957,0.0703 0.2617,0.2106l-0.0728 0.2908c-0.034,0.1405 -0.1163,0.2131 -0.2472,0.2182l-2.0285 0.1091c-0.3347,0.0192 -0.5829,0.0992 -0.7451,0.2397 -0.1623,0.1408 -0.2847,0.3757 -0.3672,0.7053z"/>
   <path class="fil0" d="M21.1393 6.9044c0,0.5722 0.3151,0.8581 0.9452,0.8581l2.5156 0c0.4411,0 0.7792,-0.1055 1.0143,-0.3161 0.2351,-0.2108 0.4155,-0.566 0.5417,-1.0653l0.8213 -3.2718 -0.7704 0 -0.8799 3.5046c-0.0388,0.1551 -0.0933,0.2568 -0.1635,0.3051 -0.0703,0.0483 -0.1855,0.0728 -0.3455,0.0728l-1.5703 0c-0.2183,0 -0.3271,-0.0874 -0.3271,-0.2617 0,-0.0485 0.0071,-0.1019 0.0217,-0.1599l0.8653 -3.4609 -1.774 0 -0.8216 3.2718c-0.0485,0.1937 -0.0728,0.3685 -0.0728,0.5233z"/>
   <polygon class="fil0" points="26.6692,6.3621 26.8481,6.4575 26.9153,6.1897 26.7364,6.0938 "/>
   <path class="fil0" d="M26.8371 6.0443c0.0718,0.0181 0.1189,-0.0161 0.1408,-0.1033l0.1117 -0.4454 -0.0979 -0.0524 -0.0718 0.2849c-0.0074,0.0299 -0.023,0.0414 -0.0472,0.0353 -0.0054,-0.001 -0.011,-0.0036 -0.0177,-0.0066l-0.2024 -0.1076c-0.0342,-0.0184 -0.0465,-0.0463 -0.0373,-0.0831l0.0718 -0.2852 -0.0981 -0.0526 -0.1117 0.4454c-0.0276,0.1091 0.0085,0.1901 0.1081,0.2433l0.2024 0.1078c0.0169,0.0092 0.0335,0.0156 0.0493,0.0195z"/>
   <path class="fil0" d="M27.0216 5.3819c0.0606,0.0151 0.1007,-0.0166 0.1206,-0.0956l0.1084 -0.4316c0.0135,-0.0544 0.0107,-0.1002 -0.0092,-0.1375 -0.0171,-0.0324 -0.0503,-0.0618 -0.0986,-0.0876l-0.2109 -0.112c-0.0235,-0.0125 -0.0439,-0.0207 -0.0615,-0.0253 -0.0606,-0.015 -0.1005,0.0166 -0.1204,0.0956l-0.1084 0.4316c-0.0135,0.0545 -0.0107,0.1004 0.009,0.1375 0.0176,0.0327 0.0503,0.0618 0.0986,0.0877l0.2111 0.1119c0.0235,0.0125 0.044,0.0207 0.0613,0.0253zm0.0156 -0.2883l-0.23 -0.1231c-0.0245,-0.0133 -0.0342,-0.0322 -0.0281,-0.0565l0.0294 -0.1158c0.0049,-0.0204 0.0159,-0.0286 0.0325,-0.0245 0.0035,0.0008 0.0084,0.0028 0.014,0.0059l0.2303 0.1229c0.0248,0.0135 0.034,0.0329 0.0276,0.0577l-0.0289 0.1158c-0.0051,0.0199 -0.0156,0.0276 -0.0314,0.0238 -0.0046,-0.0013 -0.0095,-0.0034 -0.0154,-0.0062z"/>
   <path class="fil0" d="M26.9199 4.4203l0.3877 0.2072 0.0616 -0.2453 -0.3693 -0.1978c-0.022,-0.012 -0.0299,-0.0296 -0.024,-0.0531l0.0197 -0.0795c0.0056,-0.022 0.0158,-0.0309 0.0311,-0.0274 0.0039,0.0008 0.0077,0.0026 0.0118,0.0057l0.3695 0.1975 0.0616 -0.2453 -0.3693 -0.1981c-0.0219,-0.0117 -0.0301,-0.0294 -0.024,-0.0529l0.02 -0.0797c0.0053,-0.022 0.0155,-0.0309 0.0309,-0.0271 0.0035,0.001 0.0076,0.0026 0.012,0.0054l0.3695 0.1978 0.0613 -0.2451 -0.3048 -0.1623c-0.0373,-0.0202 -0.0698,-0.0332 -0.0961,-0.0401 -0.0726,-0.0184 -0.1188,0.0128 -0.139,0.093l-0.0476 0.1889c-0.0076,0.0309 0.0051,0.0608 0.0391,0.0894l-0.0005 0.0023c-0.0202,-0.0033 -0.0347,-0.0031 -0.0437,0.001 -0.0143,0.008 -0.0248,0.0258 -0.0319,0.0547l-0.0624 0.2489c-0.0079,0.0309 0.0067,0.0644 0.0435,0.1005l-0.0005 0.002 -0.0609 -0.0319 -0.0582 0.2317 0.1129 0.0596z"/>
   <path class="fil1" d="M0.8409 8.4558l0.2124 0.3315 0.3317 -0.3315 0.323 0 -0.5668 0.5374 -0.0519 0.288 -0.2522 0 0.0516 -0.288 -0.3723 -0.5374 0.3245 0zm1.7796 0.8323c-0.0186,0 -0.0378,-0.0002 -0.0575,-0.001 -0.0201,-0.0005 -0.036,-0.001 -0.0482,-0.001 -0.0384,0 -0.0716,-0.0064 -0.0989,-0.0189 -0.0276,-0.0123 -0.0504,-0.0299 -0.0675,-0.0534 -0.0151,-0.0182 -0.0248,-0.0374 -0.0289,-0.057 -0.0066,-0.0251 -0.0089,-0.0603 -0.0066,-0.1048 0.002,-0.0447 0.0087,-0.0992 0.0204,-0.1633l0.0194 -0.1076c0.0062,-0.036 0.0143,-0.0685 0.0241,-0.0976 0.0094,-0.0291 0.0212,-0.0572 0.0347,-0.0843 0.0299,-0.0606 0.08,-0.1025 0.1495,-0.1265 0.025,-0.0087 0.0687,-0.0151 0.1308,-0.02 0.0616,-0.0043 0.1424,-0.0069 0.2418,-0.0069l0.1809 0c0.1265,0 0.2103,0.0075 0.251,0.0228 0.0815,0.0301 0.1201,0.0943 0.1152,0.1919 -0.0013,0.0135 -0.0031,0.0314 -0.0056,0.0537 -0.0026,0.0227 -0.0061,0.0447 -0.0097,0.0669l-0.0233 0.1357c-0.0102,0.0575 -0.0207,0.1033 -0.0306,0.1383 -0.0108,0.035 -0.0251,0.0672 -0.044,0.0971 -0.0271,0.0447 -0.0624,0.0782 -0.1058,0.1012 -0.0429,0.0235 -0.094,0.0347 -0.1526,0.0347l-0.1285 0.0028 -0.3601 -0.0028zm0.3593 -0.2111c0.0399,0 0.0703,-0.0015 0.0908,-0.0043 0.0345,-0.0043 0.061,-0.0207 0.0805,-0.0491 0.0194,-0.0276 0.037,-0.0874 0.0534,-0.1791 0.0084,-0.0468 0.012,-0.0805 0.0115,-0.1012 -0.0005,-0.0386 -0.0172,-0.0626 -0.0488,-0.0723 -0.0108,-0.0026 -0.023,-0.0054 -0.0368,-0.0074 -0.0136,-0.0023 -0.0276,-0.0036 -0.0412,-0.0036l-0.1612 -0.0013 -0.0908 0c-0.014,0 -0.0332,0 -0.0577,0.0008 -0.0238,0.0002 -0.0386,0.0005 -0.0442,0.0005 -0.0207,0 -0.0389,0.0036 -0.0544,0.011 -0.0154,0.0066 -0.0292,0.0179 -0.0414,0.0319 -0.019,0.0223 -0.0381,0.0892 -0.0581,0.2009 -0.0143,0.0784 -0.0104,0.128 0.0115,0.1482 0.0159,0.0158 0.0655,0.0235 0.1493,0.0235l0.2376 0.0015zm1.3401 -0.6212l0.2507 0 -0.0838 0.4682 -0.0085 0.046c-0.0058,0.0324 0,0.0575 0.0169,0.0756 0.0171,0.0179 0.0452,0.0271 0.0841,0.0271 0.0163,0 0.0406,0.001 0.0728,0.0028 0.0322,0.0021 0.0565,0.0028 0.0728,0.0028 0.0772,0 0.1334,-0.002 0.1682,-0.0061 0.0347,-0.0044 0.0629,-0.0146 0.0843,-0.0314 0.0215,-0.0167 0.035,-0.0402 0.0404,-0.0703l0.0125 -0.0634 0.0813 -0.4513 0.2522 0 -0.0976 0.541 -0.0102 0.0386c-0.0064,0.0353 -0.0172,0.0667 -0.0325,0.094 -0.0153,0.0276 -0.0337,0.0514 -0.0557,0.0723 -0.0378,0.0358 -0.0938,0.0611 -0.1674,0.0762l-0.0386 0.0069c-0.0393,0.0041 -0.14,0.0061 -0.3025,0.0061l-0.1769 -0.0028c-0.1441,0 -0.2261,-0.0414 -0.2461,-0.1244 -0.0081,-0.0294 -0.013,-0.0591 -0.0148,-0.0897 -0.0018,-0.0304 0,-0.0626 0.0062,-0.0969l0.0107 -0.0664 0.0815 -0.4549zm2.5958 0c0.0279,0 0.0463,0.0005 0.0565,0.001 0.0102,0.0008 0.0253,0.0023 0.0452,0.0044 0.0754,0.0082 0.1232,0.0355 0.1424,0.0838 0.0071,0.0184 0.0115,0.0376 0.013,0.0575 0.0005,0.0197 0,0.0399 -0.0013,0.0606 -0.0015,0.0199 -0.0041,0.0408 -0.0076,0.0623 -0.0126,0.0685 -0.0307,0.1191 -0.055,0.1533 -0.0248,0.0338 -0.0731,0.0609 -0.1456,0.0816 0.0659,0.0194 0.1045,0.0426 0.1162,0.0705 0.0118,0.0278 0.0113,0.0774 -0.0015,0.1492l-0.0184 0.1012 -0.252 0 0.0123 -0.0766c0.0094,-0.0522 0.0094,-0.0862 -0.0003,-0.102 -0.0104,-0.0184 -0.0414,-0.0271 -0.0927,-0.0271l-0.3994 0 -0.0368 0.2057 -0.252 0 0.1482 -0.8254 0.7288 0zm-0.5149 0.2126l-0.035 0.1945 0.3519 0c0.0076,0 0.0199,0 0.0381,0 0.0173,0 0.0311,0 0.0414,0 0.0104,0 0.0201,-0.0008 0.0286,-0.002 0.0089,-0.0016 0.0171,-0.0041 0.025,-0.0077 0.0274,-0.011 0.0452,-0.0409 0.0542,-0.0897 0.0059,-0.0332 0.0015,-0.0575 -0.0133,-0.0736 -0.011,-0.0128 -0.035,-0.0187 -0.0726,-0.0187l-0.0731 -0.0028 -0.3452 0zm3.1544 -0.2126l-0.0383 0.2126 -0.3618 0 -0.1099 0.6128 -0.2523 0 0.1099 -0.6128 -0.3618 0 0.0383 -0.2126 0.9759 0zm0.7677 0l0.252 0 -0.1485 0.8254 -0.252 0 0.1485 -0.8254zm1.0797 0l0.4004 0 0.1929 0.5303 0.3895 -0.5303 0.4004 0 -0.1485 0.8254 -0.2519 0 0.1081 -0.6015 -0.4511 0.6015 -0.1985 0 -0.2287 -0.6041 -0.1089 0.6041 -0.2517 0 0.148 -0.8254zm2.1925 0l0.9085 0 -0.0348 0.1932 -0.6562 0 -0.0202 0.1112 0.6199 0 -0.0322 0.1786 -0.6199 0 -0.0268 0.1495 0.6644 0 -0.0348 0.1929 -0.9164 0 0.1485 -0.8254zm3.8881 0l-0.0381 0.2126 -0.3621 0 -0.1099 0.6128 -0.2522 0 0.1099 -0.6128 -0.3618 0 0.0383 -0.2126 0.9759 0zm0.9419 0.8323c-0.0189,0 -0.0378,-0.0002 -0.0577,-0.001 -0.0199,-0.0005 -0.036,-0.001 -0.048,-0.001 -0.0386,0 -0.0716,-0.0064 -0.0989,-0.0189 -0.0279,-0.0123 -0.0501,-0.0299 -0.0675,-0.0534 -0.0151,-0.0182 -0.0248,-0.0374 -0.0291,-0.057 -0.0064,-0.0251 -0.0087,-0.0603 -0.0064,-0.1048 0.002,-0.0447 0.0089,-0.0992 0.0204,-0.1633l0.0192 -0.1076c0.0064,-0.036 0.0143,-0.0685 0.0243,-0.0976 0.0094,-0.0291 0.0212,-0.0572 0.0345,-0.0843 0.0301,-0.0606 0.0799,-0.1025 0.1495,-0.1265 0.0252,-0.0087 0.0689,-0.0151 0.1308,-0.02 0.0616,-0.0043 0.1426,-0.0069 0.2422,-0.0069l0.1807 0c0.1265,0 0.2103,0.0075 0.2507,0.0228 0.0818,0.0301 0.1201,0.0943 0.1155,0.1919 -0.0013,0.0135 -0.0031,0.0314 -0.0056,0.0537 -0.0026,0.0227 -0.0059,0.0447 -0.0097,0.0669l-0.0233 0.1357c-0.0105,0.0575 -0.0207,0.1033 -0.0309,0.1383 -0.0107,0.035 -0.025,0.0672 -0.0437,0.0971 -0.0271,0.0447 -0.0624,0.0782 -0.1058,0.1012 -0.0429,0.0235 -0.094,0.0347 -0.1526,0.0347l-0.1285 0.0028 -0.3601 -0.0028zm0.3588 -0.2111c0.0402,0 0.0703,-0.0015 0.0913,-0.0043 0.0342,-0.0043 0.061,-0.0207 0.0805,-0.0491 0.0191,-0.0276 0.0368,-0.0874 0.0531,-0.1791 0.0087,-0.0468 0.0123,-0.0805 0.0118,-0.1012 -0.0008,-0.0386 -0.0172,-0.0626 -0.0491,-0.0723 -0.0107,-0.0026 -0.023,-0.0054 -0.0368,-0.0074 -0.0135,-0.0023 -0.0273,-0.0036 -0.0409,-0.0036l-0.161 -0.0013 -0.091 0c-0.0143,0 -0.0334,0 -0.0577,0.0008 -0.024,0.0002 -0.0386,0.0005 -0.0445,0.0005 -0.0204,0 -0.0386,0.0036 -0.0544,0.011 -0.0153,0.0066 -0.0291,0.0179 -0.0411,0.0319 -0.019,0.0223 -0.0384,0.0892 -0.0583,0.2009 -0.0143,0.0784 -0.0102,0.128 0.0117,0.1482 0.0156,0.0158 0.0655,0.0235 0.1493,0.0235l0.2371 0.0015zm3.1941 -0.6212l0.0886 0c0.0397,0 0.0808,0.0031 0.125,0.009 0.0912,0.0115 0.14,0.0529 0.1475,0.1236 0.0028,0.0289 0.0015,0.0575 -0.0036,0.0864 -0.0169,0.0923 -0.0588,0.151 -0.1263,0.1766l-0.0342 0.011 0.0378 0.0089c0.0739,0.0205 0.102,0.0826 0.0836,0.1861 -0.0033,0.0179 -0.0072,0.0334 -0.0115,0.0465 -0.0041,0.0133 -0.0105,0.0281 -0.0189,0.0442 -0.0373,0.0766 -0.1007,0.1198 -0.1902,0.1293 -0.0102,0.0018 -0.0242,0.0025 -0.0419,0.0031 -0.0173,0.0005 -0.0278,0.0007 -0.0309,0.0007l-0.7919 0 0.1482 -0.8254 0.6187 0zm-0.4567 0.5014l-0.0238 0.1311 0.4506 0c0.0603,0 0.0943,-0.0207 0.1014,-0.0621 0.0054,-0.0284 -0.0036,-0.0486 -0.0263,-0.0606 -0.0043,-0.002 -0.0092,-0.0041 -0.0143,-0.0053 -0.0054,-0.0021 -0.012,-0.0031 -0.0194,-0.0031l-0.4682 0zm0.0555 -0.31l-0.0233 0.1311 0.4191 0c0.0166,0 0.0325,-0.0015 0.0475,-0.0041 0.0315,-0.0071 0.0504,-0.0278 0.0563,-0.0623 0.0079,-0.043 -0.0274,-0.0647 -0.1056,-0.0647l-0.394 0zm1.6153 -0.1914l0.9084 0 -0.0347 0.1932 -0.6563 0 -0.0199 0.1112 0.6197 0 -0.0322 0.1786 -0.62 0 -0.0265 0.1495 0.6641 0 -0.0347 0.1929 -0.9164 0 0.1485 -0.8254zm2.6367 0l-0.0384 0.2126 -0.3618 0 -0.1104 0.6128 -0.2517 0 0.1099 -0.6128 -0.3619 0 0.0383 -0.2126 0.976 0z"/>
  </g>
 </g>
</svg>
