<?xml version="1.0" encoding="UTF-8"?>
<!DOCTYPE svg PUBLIC "-//W3C//DTD SVG 1.1//EN" "http://www.w3.org/Graphics/SVG/1.1/DTD/svg11.dtd">
<!-- Creator: CorelDRAW 2018 (64-Bit) -->
<svg xmlns="http://www.w3.org/2000/svg" xml:space="preserve" width="210mm" height="297mm" version="1.1" style="shape-rendering:geometricPrecision; text-rendering:geometricPrecision; image-rendering:optimizeQuality; fill-rule:evenodd; clip-rule:evenodd"
viewBox="0 0 210 297"
 xmlns:xlink="http://www.w3.org/1999/xlink"
 enable-background="new 0 0 24 24">
 <defs>
  <style type="text/css">
   <![CDATA[
    .fil0 {fill:white}
   ]]>
  </style>
 </defs>
 <g id="Слой_x0020_1">
  <metadata id="CorelCorpID_0Corel-Layer"/>
  <g id="_2650024174832">
   <path class="fil0" d="M140 117c0,-2.1 -1.1667,-3.5 -2.9167,-3.5l-64.1666 0c-1.75,0 -2.9167,1.4 -2.9167,3.5l0 7c0,2.1 1.1667,3.5 2.9167,3.5l64.1666 0c1.75,0 2.9167,-1.4 2.9167,-3.5l0 -7z"/>
   <path class="fil0" d="M140 145c0,-2.1 -1.1667,-3.5 -2.9167,-3.5l-64.1666 0c-1.75,0 -2.9167,1.4 -2.9167,3.5l0 7c0,2.1 1.1667,3.5 2.9167,3.5l64.1666 0c1.75,0 2.9167,-1.4 2.9167,-3.5l0 -7z"/>
   <path class="fil0" d="M140 173c0,-2.1 -1.1667,-3.5 -2.9167,-3.5l-64.1666 0c-1.75,0 -2.9167,1.4 -2.9167,3.5l0 7c0,2.1 1.1667,3.5 2.9167,3.5l64.1666 0c1.75,0 2.9167,-1.4 2.9167,-3.5l0 -7z"/>
  </g>
 </g>
</svg>
