<svg xmlns="http://www.w3.org/2000/svg" xmlns:xlink="http://www.w3.org/1999/xlink" version="1.1" style="" xml:space="preserve" width="76" height="76"><rect id="backgroundrect" width="100%" height="100%" x="0" y="0" fill="none" stroke="none"/>
















<g class="currentLayer" style=""><title>Layer 1</title><g id="_x37_7_Essential_Icons_69_" class="" fill="#ffffff" fill-opacity="1" transform="rotate(90.00000762939453 37.999999999999986,37.63636016845703) ">
	<path id="Up_Arrow" d="M55.9,45.03636362552643 c-0.8,0.8 -2,0.8 -2.8,0 L38.4,30.336363625526428 L22.9,45.83636362552643 c-0.8,0.8 -2,0.8 -2.8,0 s-0.8,-2 0,-2.8 L37,26.136363625526428 c0.8,-0.8 2.1,-0.8 2.8,0 l16.1,16.1 C56.7,43.03636362552643 56.7,44.23636362552644 55.9,45.03636362552643 zM76,37.63636362552643 c0,21 -17,38 -38,38 S0,58.63636362552643 0,37.63636362552643 S17,-0.36363637447357167 38,-0.36363637447357167 S76,16.636363625526428 76,37.63636362552643 zM72,37.63636362552643 C72,18.836363625526428 56.7,3.6363636255264282 38,3.6363636255264282 C19.2,3.6363636255264282 4,18.836363625526428 4,37.63636362552643 s15.2,34 34,34 C56.7,71.63636362552643 72,56.43636362552645 72,37.63636362552643 z" fill="#ffffff" fill-opacity="1"/>
</g><g id="svg_1">
</g><g id="svg_2">
</g><g id="svg_3">
</g><g id="svg_4">
</g><g id="svg_5">
</g><g id="svg_6">
</g><g id="svg_7">
</g><g id="svg_8">
</g><g id="svg_9">
</g><g id="svg_10">
</g><g id="svg_11">
</g><g id="svg_12">
</g><g id="svg_13">
</g><g id="svg_14">
</g><g id="svg_15">
</g></g></svg>